<svg xmlns="http://www.w3.org/2000/svg" viewBox="0 0 280 280" fill="none" shape-rendering="auto" width="36" height="36"><metadata xmlns:rdf="http://www.w3.org/1999/02/22-rdf-syntax-ns#" xmlns:xsi="http://www.w3.org/2001/XMLSchema-instance" xmlns:dc="http://purl.org/dc/elements/1.1/" xmlns:dcterms="http://purl.org/dc/terms/"><rdf:RDF><rdf:Description><dc:title>Avataaars</dc:title><dc:creator>Pablo Stanley</dc:creator><dc:source xsi:type="dcterms:URI">https://avataaars.com/</dc:source><dcterms:license xsi:type="dcterms:URI">https://avataaars.com/</dcterms:license><dc:rights>Remix of „Avataaars” (https://avataaars.com/) by „Pablo Stanley”, licensed under „Free for personal and commercial use” (https://avataaars.com/)</dc:rights></rdf:Description></rdf:RDF></metadata><mask id="viewboxMask"><rect width="280" height="280" rx="0" ry="0" x="0" y="0" fill="#fff" /></mask><g mask="url(#viewboxMask)"><g transform="translate(8)"><path d="M132 36a56 56 0 0 0-56 56v6.17A12 12 0 0 0 66 110v14a12 12 0 0 0 10.3 11.88 56.04 56.04 0 0 0 31.7 44.73v18.4h-4a72 72 0 0 0-72 72v9h200v-9a72 72 0 0 0-72-72h-4v-18.39a56.04 56.04 0 0 0 31.7-44.73A12 12 0 0 0 198 124v-14a12 12 0 0 0-10-11.83V92a56 56 0 0 0-56-56Z" fill="#edb98a"/><path d="M108 180.61v8a55.79 55.79 0 0 0 24 5.39c8.59 0 16.73-1.93 24-5.39v-8a55.79 55.79 0 0 1-24 5.39 55.79 55.79 0 0 1-24-5.39Z" fill="#000" fill-opacity=".1"/><g transform="translate(0 170)"><path d="M100.37 29.14a27.6 27.6 0 0 1 7.63-7.57v15.3c0 5.83 3.98 10.98 10.08 14.13l-.08.06.9 2.86c3.89 2 8.35 3.13 13.1 3.13s9.21-1.13 13.1-3.13l.9-2.86-.08-.06c6.1-3.15 10.08-8.3 10.08-14.12v-14.6a27.1 27.1 0 0 1 6.6 6.82 72 72 0 0 1 69.4 71.95V110H32v-8.95a72 72 0 0 1 68.37-71.9Z" fill="#a7ffc4"/><path d="M108 21.57c-6.77 4.6-11 11.17-11 18.46 0 7.4 4.36 14.05 11.3 18.66l6.12-4.81 4.58.33-1-3.15.08-.06c-6.1-3.15-10.08-8.3-10.08-14.12v-15.3ZM156 36.88c0 5.82-3.98 10.97-10.08 14.12l.08.06-1 3.15 4.58-.33 5.65 4.45c6.63-4.6 10.77-11.1 10.77-18.3 0-6.92-3.82-13.2-10-17.75v14.6Z" fill="#fff" fill-opacity=".75"/></g><g transform="translate(78 134)"><rect x="42" y="18" width="24" height="6" rx="3" fill="#000" fill-opacity=".7"/></g><g transform="translate(104 122)"><path fill-rule="evenodd" clip-rule="evenodd" d="M16 8c0 4.42 5.37 8 12 8s12-3.58 12-8" fill="#000" fill-opacity=".16"/></g><g transform="translate(76 90)"><path d="M34.5 30.7 29 25.2l-5.5 5.5c-.4.4-1.1.4-1.6 0l-1.6-1.6c-.4-.4-.4-1.1 0-1.6l5.5-5.5-5.5-5.5c-.4-.5-.4-1.2 0-1.6l1.6-1.6c.4-.4 1.1-.4 1.6 0l5.5 5.5 5.5-5.5c.4-.4 1.1-.4 1.6 0l1.6 1.6c.4.4.4 1.1 0 1.6L32.2 22l5.5 5.5c.4.4.4 1.1 0 1.6l-1.6 1.6c-.4.4-1.1.4-1.6 0ZM88.5 30.7 83 25.2l-5.5 5.5c-.4.4-1.1.4-1.6 0l-1.6-1.6c-.4-.4-.4-1.1 0-1.6l5.5-5.5-5.5-5.5c-.4-.5-.4-1.2 0-1.6l1.6-1.6c.4-.4 1.1-.4 1.6 0l5.5 5.5 5.5-5.5c.4-.4 1.1-.4 1.6 0l1.6 1.6c.4.4.4 1.1 0 1.6L86.2 22l5.5 5.5c.4.4.4 1.1 0 1.6l-1.6 1.6c-.4.4-1.1.4-1.6 0Z" fill="#000" fill-opacity=".6"/></g><g transform="translate(76 82)"><path d="M15.98 17.13C17.48 7.6 30.06 1.1 39.16 5.3a2 2 0 1 0 1.68-3.63c-11.5-5.3-26.9 2.66-28.82 14.84a2 2 0 0 0 3.96.63ZM96.02 17.13C94.52 7.6 81.94 1.1 72.84 5.3a2 2 0 1 1-1.68-3.63c11.5-5.3 26.9 2.66 28.82 14.84a2 2 0 0 1-3.96.63Z" fill="#000" fill-opacity=".6"/></g><g transform="translate(-1)"><path fill-rule="evenodd" clip-rule="evenodd" d="M167.3 35c-20.18-11.7-40.17-9.78-55.26-5.97-15.1 3.8-24.02 14.62-31.68 30.62a67.68 67.68 0 0 0-6.34 25.83c-.13 3.41.33 6.94 1.25 10.22.33 1.2 2.15 5.39 2.65 2 .17-1.12-.44-2.67-.5-3.86-.08-1.57 0-3.16.11-4.73.2-2.92.73-5.8 1.65-8.59 1.33-3.98 3.02-8.3 5.6-11.67 6.4-8.33 17.49-8.8 26.29-13.39-.77 1.4-3.7 3.68-2.7 5.27.71 1.1 3.38.76 4.65.72 3.35-.09 6.72-.67 10.02-1.14a71.5 71.5 0 0 0 15-4.1c4.02-1.5 8.61-2.88 11.63-6.07a68.67 68.67 0 0 0 17.4 13c5.62 2.88 14.68 4.32 18.11 10.16 4.07 6.91 2.2 15.4 3.44 22.9.47 2.85 1.54 2.79 2.13.24 1-4.33 1.47-8.83 1.15-13.28-.72-10.05-4.4-36.45-24.6-48.15Z" fill="#c93305"/></g><g transform="translate(49 72)"><path fill-rule="evenodd" clip-rule="evenodd" d="M84.5 93.84c-11.5.38-16.64 5.88-20.5.29-2.91-4.2-1.7-11.26 1.01-15.23 3.86-5.65 9.1-2.92 14.95-3.56 1.6-.18 3.2-.62 4.54-1.34 1.36.72 2.95 1.16 4.55 1.34 5.85.64 11.09-2.09 14.94 3.56 2.72 3.97 3.93 11.03 1.03 15.23-3.87 5.6-9-.67-20.52-.29ZM140.4 26c-3.43 14.07-5 28.43-7.5 42.67-.5 2.97-1.07 5.93-1.68 8.88-.12.62-.25 2.92-.86 3.21-1.85.89-5.62-3.81-6.63-4.87-2.53-2.67-5.05-5.36-8.13-7.45a43.7 43.7 0 0 0-21.13-7.32c-3.18-.25-7.47.18-10.47 2-3-1.82-7.3-2.25-10.47-2-7.6.6-14.9 3.1-21.13 7.32-3.09 2.09-5.6 4.78-8.13 7.45-1 1.06-4.78 5.76-6.63 4.87-.61-.29-.74-2.6-.86-3.21-.6-2.95-1.17-5.91-1.7-8.88-2.47-14.24-4.05-28.6-7.47-42.67-1 0-1.87 18.75-1.98 20.5-.46 7.09-.98 14.03-.3 21.13 1.16 12.24 2.37 27.6 11.7 36.96 8.44 8.45 20.68 10.22 31.24 15.55 1.36.69 3.16 1.54 5.1 2.23 2.06 1.56 6.12 2.63 10.8 2.63 4.91 0 9.15-1.17 11.08-2.86 1.7-.65 3.27-1.39 4.48-2 10.56-5.33 22.8-7.1 31.24-15.55 9.33-9.36 10.54-24.72 11.7-36.96.68-7.1.16-14.04-.3-21.14-.1-1.74-.98-20.5-1.98-20.5Z" fill="#d6b370"/></g><g transform="translate(62 42)"></g></g></g></svg>